<svg width="26" height="27" viewBox="0 0 26 27" fill="none" xmlns="http://www.w3.org/2000/svg">
<path d="M25.4258 22.4814L20.6465 17.5829C22.1139 15.1992 22.6731 12.3451 22.2175 9.56554C21.7619 6.78602 20.3234 4.27589 18.1766 2.51454C16.0298 0.753181 13.3252 -0.135971 10.5794 0.0168849C7.83358 0.169741 5.23888 1.35389 3.29086 3.3432C1.34283 5.3325 0.177988 7.98756 0.0187764 10.8013C-0.140435 13.6151 0.717155 16.3903 2.42775 18.5971C4.13835 20.8039 6.58209 22.2875 9.29227 22.7647C12.0025 23.2419 14.7892 22.6791 17.1202 21.184L21.8995 26.0957C22.0807 26.2822 22.2961 26.4302 22.5333 26.5312C22.7704 26.6322 23.0247 26.6842 23.2816 26.6842C23.5384 26.6842 23.7927 26.6322 24.0299 26.5312C24.2671 26.4302 24.4825 26.2822 24.6637 26.0957L25.4258 25.3146C25.6078 25.1288 25.7522 24.9081 25.8507 24.665C25.9493 24.4219 26 24.1612 26 23.898C26 23.6347 25.9493 23.3741 25.8507 23.131C25.7522 22.8879 25.6078 22.6671 25.4258 22.4814ZM11.2172 19.8336C9.61792 19.8336 8.05457 19.3475 6.72483 18.4368C5.3951 17.5262 4.35869 16.2318 3.74668 14.7174C3.13467 13.203 2.97454 11.5367 3.28654 9.929C3.59854 8.32134 4.36866 6.84461 5.4995 5.68556C6.63035 4.5265 8.07115 3.73717 9.63968 3.41739C11.2082 3.09761 12.834 3.26173 14.3116 3.88901C15.7891 4.51629 17.0519 5.57854 17.9404 6.94145C18.8289 8.30435 19.3032 9.9067 19.3032 11.5459C19.2895 13.7381 18.4276 15.8352 16.9067 17.3766C15.3858 18.9181 13.3302 19.7779 11.1913 19.7674L11.2172 19.8336Z" fill="white"/>
</svg>
